Genre: Horror | Thriller
 Language: English
 IMDb: http://www.imdb.com/title/tt1633356/
 Source: Chelyusti.2011.D.T/REVELATiON Thanks!
-

Format : MPEG-4
 Format profile : Base Media
 Codec ID : isom
 File size : 961 MiB
 Duration : 1h 17mn
 Overall bit rate : 1 726 Kbps
-

Video
 ID : 1
 Format : AVC
 Format/Info : Advanced Video Codec
 Format profile : High@L4.1
 Format settings, CABAC : Yes
 Format settings, ReFrames : 3 frames
 Codec ID : avc1
 Codec ID/Info : Advanced Video Coding
 Duration : 1h 17mn
 Bit rate mode : Variable
 Bit rate : 1 500 Kbps
 Maximum bit rate : 7 661 Kbps
 Width : 720 pixels
 Height : 272 pixels
 Display aspect ratio : 2.647
 Frame rate mode : Constant
 Frame rate : 25.000 fps
 Color space : YUV
 Chroma subsampling : 4:2:0
 Bit depth : 8 bits
 Scan type : Progressive
 Bits/(Pixel*Frame) : 0.306
 Stream size : 835 MiB (87%)
 Writing library : x264
 
Audio
 ID : 2
 Format : AAC
 Format/Info : Advanced Audio Codec
 Format version : Version 4
 Format profile : LC
 Format settings, SBR : No
 Codec ID : 40
 Duration : 1h 17mn
 Bit rate mode : Variable
 Bit rate : 224 Kbps
 Maximum bit rate : 283 Kbps
 Channel(s) : 2 channels
 Channel positions : Front: L R
 Sampling rate : 44.1 KHz
 Stream size : 125 MiB (13%)



Plot:
 A weekend at a lake house in the Louisiana Gulf turns into a nightmare for seven vacationers as they are subjected to fresh-water shark attacks
 
